<svg width="26" height="26" viewBox="0 0 32 32" fill="none" xmlns="http://www.w3.org/2000/svg">
<mask id="mask0_266_3111" style="mask-type: alpha;" maskUnits="userSpaceOnUse" x="-1" y="3" width="34" height="26">
    <mask id="path-1-outside-1_266_3111" maskUnits="userSpaceOnUse" x="-1" y="3" width="34" height="26" fill="black">
    <rect fill="white" x="-1" y="3" width="34" height="26"></rect>
    <path fill-rule="evenodd" clip-rule="evenodd" d="M28 4H4C1.73333 4 0 5.73333 0 8V24C0 26.2667 1.73333 28 4 28H28C30.2667 28 32 26.2667 32 24V8C32 5.73333 30.2667 4 28 4ZM4 6.66667H28C28.8 6.66667 29.3333 7.2 29.3333 8V12H2.66667V8C2.66667 7.2 3.2 6.66667 4 6.66667ZM4 25.3333H28C28.8 25.3333 29.3333 24.8 29.3333 24V14.6667H2.66667V24C2.66667 24.8 3.2 25.3333 4 25.3333Z"></path>
    </mask>
    <path fill-rule="evenodd" clip-rule="evenodd" d="M28 4H4C1.73333 4 0 5.73333 0 8V24C0 26.2667 1.73333 28 4 28H28C30.2667 28 32 26.2667 32 24V8C32 5.73333 30.2667 4 28 4ZM4 6.66667H28C28.8 6.66667 29.3333 7.2 29.3333 8V12H2.66667V8C2.66667 7.2 3.2 6.66667 4 6.66667ZM4 25.3333H28C28.8 25.3333 29.3333 24.8 29.3333 24V14.6667H2.66667V24C2.66667 24.8 3.2 25.3333 4 25.3333Z" fill="white"></path>
    <path d="M29.3333 12V12.2H29.5333V12H29.3333ZM2.66667 12H2.46667V12.2H2.66667V12ZM29.3333 14.6667H29.5333V14.4667H29.3333V14.6667ZM2.66667 14.6667V14.4667H2.46667V14.6667H2.66667ZM4 4.2H28V3.8H4V4.2ZM0.2 8C0.2 5.84379 1.84379 4.2 4 4.2V3.8C1.62288 3.8 -0.2 5.62288 -0.2 8H0.2ZM0.2 24V8H-0.2V24H0.2ZM4 27.8C1.84379 27.8 0.2 26.1562 0.2 24H-0.2C-0.2 26.3771 1.62288 28.2 4 28.2V27.8ZM28 27.8H4V28.2H28V27.8ZM31.8 24C31.8 26.1562 30.1562 27.8 28 27.8V28.2C30.3771 28.2 32.2 26.3771 32.2 24H31.8ZM31.8 8V24H32.2V8H31.8ZM28 4.2C30.1562 4.2 31.8 5.84379 31.8 8H32.2C32.2 5.62288 30.3771 3.8 28 3.8V4.2ZM28 6.46667H4V6.86667H28V6.46667ZM29.5333 8C29.5333 7.55455 29.384 7.1678 29.1081 6.89191C28.8322 6.61602 28.4454 6.46667 28 6.46667V6.86667C28.3545 6.86667 28.6345 6.98398 28.8252 7.17475C29.016 7.36553 29.1333 7.64545 29.1333 8H29.5333ZM29.5333 12V8H29.1333V12H29.5333ZM2.66667 12.2H29.3333V11.8H2.66667V12.2ZM2.46667 8V12H2.86667V8H2.46667ZM4 6.46667C3.55455 6.46667 3.1678 6.61602 2.89191 6.89191C2.61602 7.1678 2.46667 7.55455 2.46667 8H2.86667C2.86667 7.64545 2.98398 7.36553 3.17475 7.17475C3.36553 6.98398 3.64545 6.86667 4 6.86667V6.46667ZM28 25.1333H4V25.5333H28V25.1333ZM29.1333 24C29.1333 24.3545 29.016 24.6345 28.8252 24.8252C28.6345 25.016 28.3545 25.1333 28 25.1333V25.5333C28.4454 25.5333 28.8322 25.384 29.1081 25.1081C29.384 24.8322 29.5333 24.4454 29.5333 24H29.1333ZM29.1333 14.6667V24H29.5333V14.6667H29.1333ZM2.66667 14.8667H29.3333V14.4667H2.66667V14.8667ZM2.86667 24V14.6667H2.46667V24H2.86667ZM4 25.1333C3.64545 25.1333 3.36553 25.016 3.17475 24.8252C2.98398 24.6345 2.86667 24.3545 2.86667 24H2.46667C2.46667 24.4454 2.61602 24.8322 2.89191 25.1081C3.1678 25.384 3.55455 25.5333 4 25.5333V25.1333Z" fill="white" mask="url(#path-1-outside-1_266_3111)"></path>
</mask>
<g mask="url(#mask0_266_3111)">
    <path fill-rule="evenodd" clip-rule="evenodd" d="M0 0H32V32H0V0Z" fill="#FECB33"></path>
</g>
</svg>