<svg class="me-2" width="30" height="24" viewBox="0 0 33 27" fill="none" xmlns="http://www.w3.org/2000/svg">
    <path d="M16.9145 3.20015V0.914269C16.9145 0.411453 16.503 0 16.0002 0C15.4974 0 15.0859 0.411436 15.0859 0.914269V3.20015C15.0859 3.70296 15.4974 4.11441 16.0002 4.11441C16.503 4.11441 16.9145 3.70298 16.9145 3.20015Z" fill="#FECB33"></path>
    <path d="M6.30051 7.5891C6.48327 7.77186 6.71194 7.85428 6.94957 7.85428C7.18721 7.85428 7.41588 7.7629 7.59864 7.5891C7.95521 7.23254 7.95521 6.65649 7.59864 6.2999L5.98047 4.68148C5.62391 4.32492 5.04786 4.32492 4.69126 4.68148C4.33467 5.03805 4.3347 5.61409 4.69126 5.97069L6.30051 7.5891Z" fill="#FECB33"></path>
    <path d="M4.11441 16.0002C4.11441 15.4974 3.70298 15.0859 3.20015 15.0859H0.914269C0.411453 15.0859 0 15.4974 0 16.0002C0 16.503 0.411436 16.9145 0.914269 16.9145H3.20015C3.70296 16.9145 4.11441 16.503 4.11441 16.0002Z" fill="#FECB33"></path>
    <path d="M31.0869 15.0859H28.801C28.2982 15.0859 27.8867 15.4974 27.8867 16.0002C27.8867 16.503 28.2982 16.9145 28.801 16.9145H31.0869C31.5897 16.9145 32.0011 16.503 32.0011 16.0002C32.0011 15.4974 31.5897 15.0859 31.0869 15.0859Z" fill="#FECB33"></path>
    <path d="M25.0521 7.86406C25.2897 7.86406 25.5184 7.77268 25.7012 7.59888L27.3196 5.98047C27.6761 5.62391 27.6761 5.04786 27.3196 4.69126C26.963 4.33467 26.387 4.3347 26.0304 4.69126L24.412 6.30967C24.0554 6.66624 24.0554 7.24228 24.412 7.59888C24.5858 7.77268 24.8144 7.86406 25.0521 7.86406Z" fill="#FECB33"></path>
    <path d="M8.23047 13.2576C8.23047 16.1376 9.83054 18.7709 12.3448 20.115V22.4009C12.3448 22.8032 12.61 23.1416 12.9757 23.2603C12.8752 23.4065 12.8019 23.5803 12.8019 23.7723C12.8019 24.2751 13.2134 24.6866 13.7162 24.6866H13.8533C13.7711 24.8236 13.7162 24.9699 13.7162 25.1437C13.7162 25.6465 14.1276 26.0579 14.6305 26.0579H17.8306C18.3334 26.0579 18.7448 25.6465 18.7448 25.1437C18.7448 24.9699 18.6899 24.8236 18.6078 24.6866H18.7451C19.2479 24.6866 19.6593 24.2751 19.6593 23.7723C19.6593 23.5803 19.5861 23.4065 19.4855 23.2603C19.8513 23.1414 20.1164 22.8123 20.1164 22.4009V19.8501C22.3839 18.4331 23.7737 15.9552 23.7737 13.2578C23.7737 8.9696 20.2902 5.48633 16.0022 5.48633C11.7141 5.4861 8.23047 8.9696 8.23047 13.2576ZM16.5 19.5388C19.7731 19.5388 17.8306 18.5583 17.8306 21.8315C17.8306 24.0349 20.7288 17.4817 18.7722 18.5148C18.4705 18.6703 18.2875 18.9812 18.2875 19.3194V21.4863H14.1734V19.5388C14.1734 19.1731 13.9539 18.8441 13.6249 18.6976C11.458 17.7466 14.9382 24.1995 14.9382 21.8315C14.9382 18.5583 13.2269 19.5388 16.5 19.5388Z" fill="#FECB33"></path>
</svg>